<mxfile host="app.diagrams.net" modified="2023-12-15T12:34:56.789Z" agent="Mozilla/5.0 (Windows NT 10.0; Win64; x64) AppleWebKit/537.36 (KHTML, like Gecko) Chrome/91.0.4472.124 Safari/537.36" etag="abc123" version="21.7.4" type="device">
  <diagram id="C5RBs43oDa-KdzZeNtuy" name="System Flow">
    <mxGraphModel dx="1422" dy="762" grid="1" gridSize="10" guides="1" tooltips="1" connect="1" arrows="1" fold="1" page="1" pageScale="1" pageWidth="827" pageHeight="1169" math="0" shadow="0">
      <root>
        <mxCell id="WIyWlLk6GJQsqaUBKTNV-0" />
        <mxCell id="WIyWlLk6GJQsqaUBKTNV-1" parent="WIyWlLk6GJQsqaUBKTNV-0" />
        <!-- Start Point -->
        <mxCell id="Start" value="User Visits Website" style="ellipse;whiteSpace=wrap;html=1;fillColor=#dae8fc;strokeColor=#6c8ebf;" vertex="1" parent="WIyWlLk6GJQsqaUBKTNV-1">
          <mxCell id="Start" value="User Visits Website" style="ellipse;whiteSpace=wrap;html=1;fillColor=#dae8fc;strokeColor=#6c8ebf;" vertex="1" parent="WIyWlLk6GJQsqaUBKTNV-1">
            <mxGeometry x="354" y="40" width="120" height="60" as="geometry" />
          </mxCell>
        </mxCell>
        
        <!-- Login/Register Page -->
        <mxCell id="LoginRegisterPage" value="Login/Register Page" style="rounded=1;whiteSpace=wrap;html=1;fillColor=#fff2cc;strokeColor=#d6b656;" vertex="1" parent="WIyWlLk6GJQsqaUBKTNV-1">
          <mxGeometry x="354" y="140" width="120" height="60" as="geometry" />
        </mxCell>
        
        <!-- Has Account? -->
        <mxCell id="HasAccount" value="User has account?" style="rhombus;whiteSpace=wrap;html=1;fillColor=#f8cecc;strokeColor=#b85450;" vertex="1" parent="WIyWlLk6GJQsqaUBKTNV-1">
          <mxGeometry x="359" y="240" width="110" height="100" as="geometry" />
        </mxCell>
        
        <!-- Login Form -->
        <mxCell id="LoginForm" value="Login Form" style="rounded=1;whiteSpace=wrap;html=1;fillColor=#fff2cc;strokeColor=#d6b656;" vertex="1" parent="WIyWlLk6GJQsqaUBKTNV-1">
          <mxGeometry x="240" y="340" width="120" height="60" as="geometry" />
        </mxCell>
        
        <!-- Register Form -->
        <mxCell id="RegisterForm" value="Register Form" style="rounded=1;whiteSpace=wrap;html=1;fillColor=#fff2cc;strokeColor=#d6b656;" vertex="1" parent="WIyWlLk6GJQsqaUBKTNV-1">
          <mxGeometry x="470" y="340" width="120" height="60" as="geometry" />
        </mxCell>
        
        <!-- Valid Credentials? -->
        <mxCell id="ValidCredentials" value="Valid credentials?" style="rhombus;whiteSpace=wrap;html=1;fillColor=#f8cecc;strokeColor=#b85450;" vertex="1" parent="WIyWlLk6GJQsqaUBKTNV-1">
          <mxGeometry x="245" y="440" width="110" height="100" as="geometry" />
        </mxCell>
        
        <!-- Valid Registration? -->
        <mxCell id="ValidRegistration" value="Valid registration?" style="rhombus;whiteSpace=wrap;html=1;fillColor=#f8cecc;strokeColor=#b85450;" vertex="1" parent="WIyWlLk6GJQsqaUBKTNV-1">
          <mxGeometry x="475" y="440" width="110" height="100" as="geometry" />
        </mxCell>
        
        <!-- User Role? -->
        <mxCell id="UserRole" value="User role?" style="rhombus;whiteSpace=wrap;html=1;fillColor=#f8cecc;strokeColor=#b85450;" vertex="1" parent="WIyWlLk6GJQsqaUBKTNV-1">
          <mxGeometry x="245" y="580" width="110" height="100" as="geometry" />
        </mxCell>
        
        <!-- Admin Dashboard -->
        <mxCell id="AdminDashboard" value="Admin Dashboard" style="rounded=1;whiteSpace=wrap;html=1;fillColor=#d5e8d4;strokeColor=#82b366;" vertex="1" parent="WIyWlLk6GJQsqaUBKTNV-1">
          <mxGeometry x="130" y="700" width="120" height="60" as="geometry" />
        </mxCell>
        
        <!-- User Dashboard -->
        <mxCell id="UserDashboard" value="User Dashboard" style="rounded=1;whiteSpace=wrap;html=1;fillColor=#d5e8d4;strokeColor=#82b366;" vertex="1" parent="WIyWlLk6GJQsqaUBKTNV-1">
          <mxGeometry x="350" y="700" width="120" height="60" as="geometry" />
        </mxCell>
        
        <!-- Post Item Process -->
        <mxCell id="PostItem" value="Post Lost/Found Item" style="rounded=1;whiteSpace=wrap;html=1;fillColor=#d5e8d4;strokeColor=#82b366;" vertex="1" parent="WIyWlLk6GJQsqaUBKTNV-1">
          <mxGeometry x="200" y="800" width="120" height="60" as="geometry" />
        </mxCell>
        
        <!-- View Items -->
        <mxCell id="ViewItems" value="View Items" style="rounded=1;whiteSpace=wrap;html=1;fillColor=#d5e8d4;strokeColor=#82b366;" vertex="1" parent="WIyWlLk6GJQsqaUBKTNV-1">
          <mxGeometry x="350" y="800" width="120" height="60" as="geometry" />
        </mxCell>
        
        <!-- Profile -->
        <mxCell id="Profile" value="User Profile" style="rounded=1;whiteSpace=wrap;html=1;fillColor=#d5e8d4;strokeColor=#82b366;" vertex="1" parent="WIyWlLk6GJQsqaUBKTNV-1">
          <mxGeometry x="500" y="800" width="120" height="60" as="geometry" />
        </mxCell>
        
        <!-- Item Details -->
        <mxCell id="ItemDetails" value="Item Details" style="rounded=1;whiteSpace=wrap;html=1;fillColor=#d5e8d4;strokeColor=#82b366;" vertex="1" parent="WIyWlLk6GJQsqaUBKTNV-1">
          <mxGeometry x="350" y="900" width="120" height="60" as="geometry" />
        </mxCell>
        
        <!-- Update Status -->
        <mxCell id="UpdateStatus" value="Update Item Status" style="rounded=1;whiteSpace=wrap;html=1;fillColor=#d5e8d4;strokeColor=#82b366;" vertex="1" parent="WIyWlLk6GJQsqaUBKTNV-1">
          <mxGeometry x="350" y="1000" width="120" height="60" as="geometry" />
        </mxCell>
        
        <!-- Logout -->
        <mxCell id="Logout" value="Logout" style="rounded=1;whiteSpace=wrap;html=1;fillColor=#fff2cc;strokeColor=#d6b656;" vertex="1" parent="WIyWlLk6GJQsqaUBKTNV-1">
          <mxGeometry x="660" y="700" width="120" height="60" as="geometry" />
        </mxCell>
        
        <!-- End Point -->
        <mxCell id="End" value="Session Ended" style="ellipse;whiteSpace=wrap;html=1;fillColor=#dae8fc;strokeColor=#6c8ebf;" vertex="1" parent="WIyWlLk6GJQsqaUBKTNV-1">
          <mxGeometry x="660" y="800" width="120" height="60" as="geometry" />
        </mxCell>
        
        <!-- Database Symbols -->
        <mxCell id="UsersDB" value="users_db" style="shape=cylinder3;whiteSpace=wrap;html=1;boundedLbl=1;backgroundOutline=1;size=15;fillColor=#e1d5e7;strokeColor=#9673a6;" vertex="1" parent="WIyWlLk6GJQsqaUBKTNV-1">
          <mxGeometry x="620" y="450" width="70" height="80" as="geometry" />
        </mxCell>
        
        <mxCell id="PostsDB" value="user_db&#xa;(posts)" style="shape=cylinder3;whiteSpace=wrap;html=1;boundedLbl=1;backgroundOutline=1;size=15;fillColor=#e1d5e7;strokeColor=#9673a6;" vertex="1" parent="WIyWlLk6GJQsqaUBKTNV-1">
          <mxGeometry x="140" y="900" width="70" height="80" as="geometry" />
        </mxCell>
        
        <mxCell id="NotificationsDB" value="user_db&#xa;(notifications)" style="shape=cylinder3;whiteSpace=wrap;html=1;boundedLbl=1;backgroundOutline=1;size=15;fillColor=#e1d5e7;strokeColor=#9673a6;" vertex="1" parent="WIyWlLk6GJQsqaUBKTNV-1">
          <mxGeometry x="500" y="900" width="70" height="80" as="geometry" />
        </mxCell>
        
        <!-- Connections -->
        <!-- Start to Login/Register -->
        <mxCell id="edge1" style="edgeStyle=orthogonalEdgeStyle;rounded=0;orthogonalLoop=1;jettySize=auto;html=1;exitX=0.5;exitY=1;exitDx=0;exitDy=0;entryX=0.5;entryY=0;entryDx=0;entryDy=0;" edge="1" parent="WIyWlLk6GJQsqaUBKTNV-1" source="Start" target="LoginRegisterPage">
          <mxGeometry relative="1" as="geometry" />
        </mxCell>
        
        <!-- Login/Register to Has Account -->
        <mxCell id="edge2" style="edgeStyle=orthogonalEdgeStyle;rounded=0;orthogonalLoop=1;jettySize=auto;html=1;exitX=0.5;exitY=1;exitDx=0;exitDy=0;entryX=0.5;entryY=0;entryDx=0;entryDy=0;" edge="1" parent="WIyWlLk6GJQsqaUBKTNV-1" source="LoginRegisterPage" target="HasAccount">
          <mxGeometry relative="1" as="geometry" />
        </mxCell>
        
        <!-- Has Account to Login -->
        <mxCell id="edge3" style="edgeStyle=orthogonalEdgeStyle;rounded=0;orthogonalLoop=1;jettySize=auto;html=1;exitX=0;exitY=0.5;exitDx=0;exitDy=0;entryX=0.5;entryY=0;entryDx=0;entryDy=0;" edge="1" parent="WIyWlLk6GJQsqaUBKTNV-1" source="HasAccount" target="LoginForm">
          <mxGeometry relative="1" as="geometry" />
        </mxCell>
        <mxCell id="edge3Label" value="Yes" style="edgeLabel;html=1;align=center;verticalAlign=middle;resizable=0;points=[];" vertex="1" connectable="0" parent="edge3">
          <mxGeometry x="-0.3" relative="1" as="geometry">
            <mxPoint as="offset" />
          </mxGeometry>
        </mxCell>
        
        <!-- Has Account to Register -->
        <mxCell id="edge4" style="edgeStyle=orthogonalEdgeStyle;rounded=0;orthogonalLoop=1;jettySize=auto;html=1;exitX=1;exitY=0.5;exitDx=0;exitDy=0;entryX=0.5;entryY=0;entryDx=0;entryDy=0;" edge="1" parent="WIyWlLk6GJQsqaUBKTNV-1" source="HasAccount" target="RegisterForm">
          <mxGeometry relative="1" as="geometry" />
        </mxCell>
        <mxCell id="edge4Label" value="No" style="edgeLabel;html=1;align=center;verticalAlign=middle;resizable=0;points=[];" vertex="1" connectable="0" parent="edge4">
          <mxGeometry x="-0.3" relative="1" as="geometry">
            <mxPoint as="offset" />
          </mxGeometry>
        </mxCell>
        
        <!-- Login Form to Valid Credentials -->
        <mxCell id="edge5" style="edgeStyle=orthogonalEdgeStyle;rounded=0;orthogonalLoop=1;jettySize=auto;html=1;exitX=0.5;exitY=1;exitDx=0;exitDy=0;entryX=0.5;entryY=0;entryDx=0;entryDy=0;" edge="1" parent="WIyWlLk6GJQsqaUBKTNV-1" source="LoginForm" target="ValidCredentials">
          <mxGeometry relative="1" as="geometry" />
        </mxCell>
        
        <!-- Register Form to Valid Registration -->
        <mxCell id="edge6" style="edgeStyle=orthogonalEdgeStyle;rounded=0;orthogonalLoop=1;jettySize=auto;html=1;exitX=0.5;exitY=1;exitDx=0;exitDy=0;entryX=0.5;entryY=0;entryDx=0;entryDy=0;" edge="1" parent="WIyWlLk6GJQsqaUBKTNV-1" source="RegisterForm" target="ValidRegistration">
          <mxGeometry relative="1" as="geometry" />
        </mxCell>
        
        <!-- Valid Registration to UsersDB -->
        <mxCell id="edge7" style="edgeStyle=orthogonalEdgeStyle;rounded=0;orthogonalLoop=1;jettySize=auto;html=1;exitX=1;exitY=0.5;exitDx=0;exitDy=0;entryX=0;entryY=0.5;entryDx=0;entryDy=0;" edge="1" parent="WIyWlLk6GJQsqaUBKTNV-1" source="ValidRegistration" target="UsersDB">
          <mxGeometry relative="1" as="geometry" />
        </mxCell>
        <mxCell id="edge7Label" value="Yes" style="edgeLabel;html=1;align=center;verticalAlign=middle;resizable=0;points=[];" vertex="1" connectable="0" parent="edge7">
          <mxGeometry x="-0.3" relative="1" as="geometry">
            <mxPoint as="offset" />
          </mxGeometry>
        </mxCell>
        
        <!-- Valid Registration to Login/Register Page (No) -->
        <mxCell id="edge8" style="edgeStyle=orthogonalEdgeStyle;rounded=0;orthogonalLoop=1;jettySize=auto;html=1;exitX=0.5;exitY=0;exitDx=0;exitDy=0;entryX=1;entryY=0.25;entryDx=0;entryDy=0;dashed=1;" edge="1" parent="WIyWlLk6GJQsqaUBKTNV-1" source="ValidRegistration" target="LoginRegisterPage">
          <mxGeometry relative="1" as="geometry">
            <Array as="points">
              <mxPoint x="530" y="420" />
              <mxPoint x="600" y="420" />
              <mxPoint x="600" y="155" />
            </Array>
          </mxGeometry>
        </mxCell>
        <mxCell id="edge8Label" value="No" style="edgeLabel;html=1;align=center;verticalAlign=middle;resizable=0;points=[];" vertex="1" connectable="0" parent="edge8">
          <mxGeometry x="-0.7" relative="1" as="geometry">
            <mxPoint as="offset" />
          </mxGeometry>
        </mxCell>
        
        <!-- Valid Credentials to User Role -->
        <mxCell id="edge9" style="edgeStyle=orthogonalEdgeStyle;rounded=0;orthogonalLoop=1;jettySize=auto;html=1;exitX=0.5;exitY=1;exitDx=0;exitDy=0;entryX=0.5;entryY=0;entryDx=0;entryDy=0;" edge="1" parent="WIyWlLk6GJQsqaUBKTNV-1" source="ValidCredentials" target="UserRole">
          <mxGeometry relative="1" as="geometry" />
        </mxCell>
        <mxCell id="edge9Label" value="Yes" style="edgeLabel;html=1;align=center;verticalAlign=middle;resizable=0;points=[];" vertex="1" connectable="0" parent="edge9">
          <mxGeometry x="-0.2" relative="1" as="geometry">
            <mxPoint as="offset" />
          </mxGeometry>
        </mxCell>
        
        <!-- Valid Credentials to Login/Register Page (No) -->
        <mxCell id="edge10" style="edgeStyle=orthogonalEdgeStyle;rounded=0;orthogonalLoop=1;jettySize=auto;html=1;exitX=0;exitY=0.5;exitDx=0;exitDy=0;entryX=0;entryY=0.5;entryDx=0;entryDy=0;dashed=1;" edge="1" parent="WIyWlLk6GJQsqaUBKTNV-1" source="ValidCredentials" target="LoginRegisterPage">
          <mxGeometry relative="1" as="geometry">
            <Array as="points">
              <mxPoint x="100" y="490" />
              <mxPoint x="100" y="170" />
            </Array>
          </mxGeometry>
        </mxCell>
        <mxCell id="edge10Label" value="No" style="edgeLabel;html=1;align=center;verticalAlign=middle;resizable=0;points=[];" vertex="1" connectable="0" parent="edge10">
          <mxGeometry x="-0.7" relative="1" as="geometry">
            <mxPoint as="offset" />
          </mxGeometry>
        </mxCell>
        
        <!-- User Role to Admin Dashboard -->
        <mxCell id="edge11" style="edgeStyle=orthogonalEdgeStyle;rounded=0;orthogonalLoop=1;jettySize=auto;html=1;exitX=0;exitY=0.5;exitDx=0;exitDy=0;entryX=0.5;entryY=0;entryDx=0;entryDy=0;" edge="1" parent="WIyWlLk6GJQsqaUBKTNV-1" source="UserRole" target="AdminDashboard">
          <mxGeometry relative="1" as="geometry" />
        </mxCell>
        <mxCell id="edge11Label" value="Admin" style="edgeLabel;html=1;align=center;verticalAlign=middle;resizable=0;points=[];" vertex="1" connectable="0" parent="edge11">
          <mxGeometry x="-0.4" relative="1" as="geometry">
            <mxPoint as="offset" />
          </mxGeometry>
        </mxCell>
        
        <!-- User Role to User Dashboard -->
        <mxCell id="edge12" style="edgeStyle=orthogonalEdgeStyle;rounded=0;orthogonalLoop=1;jettySize=auto;html=1;exitX=1;exitY=0.5;exitDx=0;exitDy=0;entryX=0.5;entryY=0;entryDx=0;entryDy=0;" edge="1" parent="WIyWlLk6GJQsqaUBKTNV-1" source="UserRole" target="UserDashboard">
          <mxGeometry relative="1" as="geometry" />
        </mxCell>
        <mxCell id="edge12Label" value="User" style="edgeLabel;html=1;align=center;verticalAlign=middle;resizable=0;points=[];" vertex="1" connectable="0" parent="edge12">
          <mxGeometry x="-0.4" relative="1" as="geometry">
            <mxPoint as="offset" />
          </mxGeometry>
        </mxCell>
        
        <!-- User Dashboard to Post Item -->
        <mxCell id="edge13" style="edgeStyle=orthogonalEdgeStyle;rounded=0;orthogonalLoop=1;jettySize=auto;html=1;exitX=0;exitY=1;exitDx=0;exitDy=0;entryX=0.5;entryY=0;entryDx=0;entryDy=0;" edge="1" parent="WIyWlLk6GJQsqaUBKTNV-1" source="UserDashboard" target="PostItem">
          <mxGeometry relative="1" as="geometry" />
        </mxCell>
        
        <!-- User Dashboard to View Items -->
        <mxCell id="edge14" style="edgeStyle=orthogonalEdgeStyle;rounded=0;orthogonalLoop=1;jettySize=auto;html=1;exitX=0.5;exitY=1;exitDx=0;exitDy=0;entryX=0.5;entryY=0;entryDx=0;entryDy=0;" edge="1" parent="WIyWlLk6GJQsqaUBKTNV-1" source="UserDashboard" target="ViewItems">
          <mxGeometry relative="1" as="geometry" />
        </mxCell>
        
        <!-- User Dashboard to Profile -->
        <mxCell id="edge15" style="edgeStyle=orthogonalEdgeStyle;rounded=0;orthogonalLoop=1;jettySize=auto;html=1;exitX=1;exitY=1;exitDx=0;exitDy=0;entryX=0.5;entryY=0;entryDx=0;entryDy=0;" edge="1" parent="WIyWlLk6GJQsqaUBKTNV-1" source="UserDashboard" target="Profile">
          <mxGeometry relative="1" as="geometry" />
        </mxCell>
        
        <!-- Post Item to Posts DB -->
        <mxCell id="edge16" style="edgeStyle=orthogonalEdgeStyle;rounded=0;orthogonalLoop=1;jettySize=auto;html=1;exitX=0;exitY=0.5;exitDx=0;exitDy=0;entryX=0.5;entryY=0;entryDx=0;entryDy=0;" edge="1" parent="WIyWlLk6GJQsqaUBKTNV-1" source="PostItem" target="PostsDB">
          <mxGeometry relative="1" as="geometry" />
        </mxCell>
        
        <!-- View Items to Item Details -->
        <mxCell id="edge17" style="edgeStyle=orthogonalEdgeStyle;rounded=0;orthogonalLoop=1;jettySize=auto;html=1;exitX=0.5;exitY=1;exitDx=0;exitDy=0;entryX=0.5;entryY=0;entryDx=0;entryDy=0;" edge="1" parent="WIyWlLk6GJQsqaUBKTNV-1" source="ViewItems" target="ItemDetails">
          <mxGeometry relative="1" as="geometry" />
        </mxCell>
        
        <!-- Item Details to Update Status -->
        <mxCell id="edge18" style="edgeStyle=orthogonalEdgeStyle;rounded=0;orthogonalLoop=1;jettySize=auto;html=1;exitX=0.5;exitY=1;exitDx=0;exitDy=0;entryX=0.5;entryY=0;entryDx=0;entryDy=0;" edge="1" parent="WIyWlLk6GJQsqaUBKTNV-1" source="ItemDetails" target="UpdateStatus">
          <mxGeometry relative="1" as="geometry" />
        </mxCell>
        
        <!-- Item Details to Notifications DB -->
        <mxCell id="edge19" style="edgeStyle=orthogonalEdgeStyle;rounded=0;orthogonalLoop=1;jettySize=auto;html=1;exitX=1;exitY=0.5;exitDx=0;exitDy=0;entryX=0;entryY=0.5;entryDx=0;entryDy=0;" edge="1" parent="WIyWlLk6GJQsqaUBKTNV-1" source="ItemDetails" target="NotificationsDB">
          <mxGeometry relative="1" as="geometry" />
        </mxCell>
        
        <!-- Update Status to Posts DB -->
        <mxCell id="edge20" style="edgeStyle=orthogonalEdgeStyle;rounded=0;orthogonalLoop=1;jettySize=auto;html=1;exitX=0;exitY=0.5;exitDx=0;exitDy=0;entryX=0.5;entryY=1;entryDx=0;entryDy=0;entryPerimeter=0;" edge="1" parent="WIyWlLk6GJQsqaUBKTNV-1" source="UpdateStatus" target="PostsDB">
          <mxGeometry relative="1" as="geometry">
            <Array as="points">
              <mxPoint x="175" y="1030" />
            </Array>
          </mxGeometry>
        </mxCell>
        
        <!-- User/Admin Dashboard to Logout -->
        <mxCell id="edge21" style="edgeStyle=orthogonalEdgeStyle;rounded=0;orthogonalLoop=1;jettySize=auto;html=1;exitX=1;exitY=0.5;exitDx=0;exitDy=0;entryX=0;entryY=0.5;entryDx=0;entryDy=0;" edge="1" parent="WIyWlLk6GJQsqaUBKTNV-1" source="UserDashboard" target="Logout">
          <mxGeometry relative="1" as="geometry" />
        </mxCell>
        
        <!-- Logout to End -->
        <mxCell id="edge22" style="edgeStyle=orthogonalEdgeStyle;rounded=0;orthogonalLoop=1;jettySize=auto;html=1;exitX=0.5;exitY=1;exitDx=0;exitDy=0;entryX=0.5;entryY=0;entryDx=0;entryDy=0;" edge="1" parent="WIyWlLk6GJQsqaUBKTNV-1" source="Logout" target="End">
          <mxGeometry relative="1" as="geometry" />
        </mxCell>
        
        <!-- Admin Dashboard to Logout -->
        <mxCell id="edge23" style="edgeStyle=orthogonalEdgeStyle;rounded=0;orthogonalLoop=1;jettySize=auto;html=1;exitX=1;exitY=0.5;exitDx=0;exitDy=0;entryX=0;entryY=0.25;entryDx=0;entryDy=0;" edge="1" parent="WIyWlLk6GJQsqaUBKTNV-1" source="AdminDashboard" target="Logout">
          <mxGeometry relative="1" as="geometry">
            <Array as="points">
              <mxPoint x="600" y="730" />
              <mxPoint x="600" y="715" />
            </Array>
          </mxGeometry>
        </mxCell>
        
        <!-- UsersDB to Login/Register Page (after registration) -->
        <mxCell id="edge24" style="edgeStyle=orthogonalEdgeStyle;rounded=0;orthogonalLoop=1;jettySize=auto;html=1;exitX=0.5;exitY=0;exitDx=0;exitDy=0;exitPerimeter=0;entryX=1;entryY=0.75;entryDx=0;entryDy=0;dashed=1;" edge="1" parent="WIyWlLk6GJQsqaUBKTNV-1" source="UsersDB" target="LoginRegisterPage">
          <mxGeometry relative="1" as="geometry">
            <Array as="points">
              <mxPoint x="655" y="430" />
              <mxPoint x="720" y="430" />
              <mxPoint x="720" y="185" />
            </Array>
          </mxGeometry>
        </mxCell>
      </root>
    </mxGraphModel>
  </diagram>
</mxfile>
